<?xml version="1.0" encoding="iso-8859-1"?>
<!-- Generator: Adobe Illustrator 19.0.0, SVG Export Plug-In . SVG Version: 6.00 Build 0)  -->
<svg version="1.1" id="Layer_1" xmlns="http://www.w3.org/2000/svg" xmlns:xlink="http://www.w3.org/1999/xlink" x="0px" y="0px"
	 viewBox="0 0 512 512" style="enable-background:new 0 0 512 512;" xml:space="preserve">
<g transform="translate(1 1)">
	<g>
		<path style="fill:#FFE100;" d="M336.067,304.493V75.8c0-37.547-30.72-68.267-68.267-68.267c29.013,0,52.907,30.72,52.907,68.267
			v228.693c19.627,19.627,32.427,51.2,32.427,87.04c0,61.44-38.4,110.933-85.333,110.933c61.44,0,110.933-49.493,110.933-110.933
			C378.733,355.693,361.667,324.12,336.067,304.493"/>
		<path style="fill:#FFE100;" d="M301.933,304.493L303.64,75.8c0-37.547-23.893-68.267-52.907-68.267s-52.907,30.72-52.907,68.267
			v228.693c-19.627,19.627-32.427,51.2-32.427,87.04c0,61.44,38.4,110.933,85.333,110.933s85.333-49.493,85.333-110.933
			C336.067,355.693,321.56,324.12,301.933,304.493"/>
	</g>
	<path style="fill:#FFA800;" d="M319,304.493V75.8c0-37.547-30.72-68.267-68.267-68.267c29.013,0,51.2,30.72,51.2,68.267v228.693
		c19.627,20.48,34.133,52.053,34.133,87.04c0,61.44-38.4,110.933-85.333,110.933c61.44,0,110.933-49.493,110.933-110.933
		C361.667,355.693,344.6,324.12,319,304.493"/>
	<path style="fill:#FFFFFF;" d="M165.4,391.533c0-35.84,14.507-67.413,34.133-87.04V75.8c0-37.547,6.827-68.267,51.2-68.267
		c-37.547,0-68.267,30.72-68.267,68.267v228.693c-25.6,19.627-42.667,51.2-42.667,87.04c0,61.44,49.493,110.933,110.933,110.933
		C203.8,502.467,165.4,452.973,165.4,391.533"/>
	<path style="fill:#DD3859;" d="M250.733,468.333c-42.667,0-76.8-34.133-76.8-76.8c0-23.893,11.093-46.08,29.867-60.587l12.8-10.24
		V127c0-18.773,15.36-34.133,34.133-34.133s34.133,15.36,34.133,34.133v193.707l12.8,10.24
		c18.773,14.507,29.867,36.693,29.867,60.587C327.533,434.2,293.4,468.333,250.733,468.333"/>
	<path style="fill:#E4667F;" d="M225.133,468.333c-42.667,0-51.2-95.573-51.2-76.8c0-23.893,11.093-46.08,29.867-60.587l12.8-10.24
		V127c0-18.773,6.827-34.133,25.6-34.133s17.067,15.36,17.067,34.133v193.707l12.8,10.24c18.773,14.507,29.867,36.693,29.867,60.587
		C301.933,434.2,267.8,468.333,225.133,468.333"/>
	<path d="M250.733,511c-65.707,0-119.467-53.76-119.467-119.467c0-35.84,15.36-68.267,42.667-91.307V75.8
		c0-42.667,34.133-76.8,76.8-76.8s76.8,34.133,76.8,76.8v224.427c27.307,23.04,42.667,55.467,42.667,91.307
		C370.2,457.24,316.44,511,250.733,511z M250.733,16.067C217.453,16.067,191,42.52,191,75.8v228.693c0,2.56-0.853,5.12-3.413,6.827
		c-24.747,19.627-39.253,48.64-39.253,80.213c0,56.32,46.08,102.4,102.4,102.4s102.4-46.08,102.4-102.4
		c0-31.573-14.507-60.587-39.253-80.213c-1.707-1.707-3.413-4.267-3.413-6.827V75.8C310.467,42.52,284.013,16.067,250.733,16.067z"
		/>
	<path d="M250.733,476.867c-46.933,0-85.333-38.4-85.333-85.333c0-26.453,11.947-51.2,32.427-67.413l10.24-7.68V127
		c0-23.893,18.773-42.667,42.667-42.667S293.4,103.107,293.4,127v189.44l10.24,7.68c20.48,16.213,32.427,40.96,32.427,67.413
		C336.067,438.467,297.667,476.867,250.733,476.867z M250.733,101.4c-14.507,0-25.6,11.093-25.6,25.6v193.707
		c0,2.56-0.853,5.12-3.413,6.827l-12.8,10.24c-17.067,12.8-26.453,32.427-26.453,53.76c0,37.547,30.72,68.267,68.267,68.267
		S319,429.08,319,391.533c0-21.333-9.387-40.96-26.453-53.76l-12.8-10.24c-2.56-1.707-3.413-4.267-3.413-6.827V127
		C276.333,112.493,265.24,101.4,250.733,101.4z"/>
</g>
<g>
</g>
<g>
</g>
<g>
</g>
<g>
</g>
<g>
</g>
<g>
</g>
<g>
</g>
<g>
</g>
<g>
</g>
<g>
</g>
<g>
</g>
<g>
</g>
<g>
</g>
<g>
</g>
<g>
</g>
</svg>
